# xmcd
#
# Track frame offsets:
#	150
#	29117
#	52502
#	76527
#	91102
#	108015
#	134495
#	147467
#
# Disc length: 2265 seconds
#
# Revision: 2
# Processed by: cddbd v1.5PL3 Copyright (c) Steve Scherf et al.
# Submitted via: CDmax 2.0
#
DISCID=5a08d708
DTITLE=Linkin' Louisiana Peps - Blues Connection
DYEAR=1968
DGENRE=Blues
TTITLE0=Blues With A Feeling
TTITLE1=Dimples
TTITLE2=Five Long Years
TTITLE3=Rooster Blues
TTITLE4=Shake Your Money Maker
TTITLE5=The Sky Is Crying
TTITLE6=Dust My Blues
TTITLE7=Sportin' Life Blues
EXTD=Göran Ramberg - tenor\nGuy Öhrström - gitarr\nSlim Notini - piano\nGöra
EXTD=n Malmberg - bass\nPelle Ekman - drums\nBill Öhrström - congas\nLinkin
EXTD=' Lousiana Peps - vocals and harmonica\n\nProduced by Gert Palmcrantz
EXTT0=(Walter Jacobs)
EXTT1=(John Lee Hooker/James Bracken)
EXTT2=(Eddie Boyd)
EXTT3=(J. West)
EXTT4=(Elmore James)
EXTT5=(Clarence Lewis/Morgan Robinson/Elmore James)
EXTT6=(Elmore James/Joe Josea)
EXTT7=(Brownie McGhee)
PLAYORDER=
